<svg xmlns="http://www.w3.org/2000/svg" viewBox="0 0 512 512"><defs><style>.a{fill:#79d7fd;}.b{fill:#00183e;}.c{fill:#00bbfa;}</style></defs><rect class="a" x="24.93" y="77.21" width="461.75" height="340.94" transform="translate(-37.92 46.42) rotate(-9.66)"/><rect class="b" x="236.3" y="227.58" width="300.22" height="179.56" transform="translate(-20.93 607.37) rotate(-74.84)"/><path class="c" d="M213.32,348.73a18.32,18.32,0,0,0,9.54-5.76q3.24-3.95,5-12.24L277.22,99.25,129.62,354.49h-9.36L81.38,101.77l-49,229q-1.8,8.29,0,12.24t7.2,5.76q5.4,1.81,17.28,2.88l-.72,2.88H-4.3l.72-2.88Q8.66,350.53,15,348.73A18.32,18.32,0,0,0,24.5,343q3.24-3.95,5-12.24l46.8-218.88q1.8-8.26,0-12.24t-7.2-5.76Q63.74,92.07,51.86,91l.72-2.88h63l34.56,225.36L280.46,88.09h61.92L341.66,91a107.06,107.06,0,0,0-18.54,2.88,18.58,18.58,0,0,0-9.54,5.76q-3.24,4-5,12.24l-46.8,218.88q-1.8,8.29,0,12.24t7.2,5.76q5.4,1.81,17.28,2.88l-.72,2.88H194.06l.72-2.88Q207,350.53,213.32,348.73Z"/><path class="c" d="M474.46,214.27q-7.18-3.53-28.31-3.52l.64-2.56H513l-.65,2.56q-11.83,0-19.67,3.68t-14.56,13.28l-95.36,151-3.52,6.08q-14.08,21.75-26.4,34.72t-31.37,20.8q-19,7.83-44.63,3.68l7-32a88,88,0,0,0,20.8,7.2,78.55,78.55,0,0,0,20.48,1.44,54.34,54.34,0,0,0,23-8q10.88-6.72,22.39-20.48a3.11,3.11,0,0,1,1.13-2.72,16.33,16.33,0,0,0,2.71-2.72L339,227.71q-2.25-9.92-7.84-13.44t-17.44-3.52l.64-2.56h89.6l-.64,2.56q-13.44,0-20.81,1.6t-10.39,5.12Q369,221,371,227.71L397.5,351.23l78.41-123.52Q481.67,217.8,474.46,214.27Z"/></svg>